<svg width="285" height="60" viewBox="0 0 285 60" fill="none" xmlns="http://www.w3.org/2000/svg">
<path d="M9 0.5H0V60H9V39L15.5 33.5L38 60H50.5L22.5 27.5L49 0.5H36.5L9 28.5V0.5Z" fill="white"/>
<circle cx="278.5" cy="6.5" r="6.5" fill="white"/>
<path d="M283 19H274V60H283V19Z" fill="white"/>
<path d="M77 19H68V60H77V19Z" fill="white"/>
<circle cx="72.5" cy="6.5" r="6.5" fill="#D39E49"/>
<path d="M136.5 19H102V27H125L101 52V60H137.5V52H113L136.5 27V19Z" fill="white"/>
<path d="M164 19H155L155 42C155 45.5 154.928 49.5425 157 53C159.998 58 162.997 58.9007 165.997 59.5C168.5 60 174.697 60.3199 178 59C182.497 57.2032 183.5 55 185 53.5V59H194.5V19H185C185.167 25 185.4 37.2 185 42C184.5 48 182 49.5 180.5 50.5C177.5 52.5001 172.1 53.5 168.5 51.5C164 49 164 44.8333 164 42L164 19Z" fill="white"/>
<path d="M225 0H216V60H225V46.5L230 42L245 60H256L237 36.5L255 19H243.5L225 36.5V0Z" fill="white"/>
</svg>
